<svg xmlns="http://www.w3.org/2000/svg" viewBox="0 0 877.03 1198.71"><defs><linearGradient id="linear-gradient" x1="-330.24" y1="127.73" x2="861.89" y2="338.51" gradientUnits="userSpaceOnUse"><stop offset="0" stop-color="#a06d29"/><stop offset="0.34" stop-color="#a06d29"/><stop offset="0.55" stop-color="#f9c025"/><stop offset="0.65" stop-color="#f6b11a"/><stop offset="0.66" stop-color="#f6b525"/><stop offset="0.66" stop-color="#f8bf42"/><stop offset="0.67" stop-color="#f9d070"/><stop offset="0.68" stop-color="#fce7b1"/><stop offset="0.68" stop-color="#fefbea"/><stop offset="0.83" stop-color="#feea98"/><stop offset="0.94" stop-color="#f6b11a"/></linearGradient><linearGradient id="linear-gradient-2" x1="952.13" y1="375.54" x2="35.28" y2="638.15" gradientUnits="userSpaceOnUse"><stop offset="0" stop-color="#a06d29"/><stop offset="0.11" stop-color="#a9732d"/><stop offset="0.13" stop-color="#b57d2a"/><stop offset="0.19" stop-color="#d99921"/><stop offset="0.25" stop-color="#efab1c"/><stop offset="0.28" stop-color="#f7b11a"/><stop offset="0.39" stop-color="#f7b11a"/><stop offset="0.42" stop-color="#f7b525"/><stop offset="0.48" stop-color="#f8c141"/><stop offset="0.56" stop-color="#f8d570"/><stop offset="0.64" stop-color="#f9efb0"/><stop offset="0.65" stop-color="#f9f0b2"/><stop offset="0.68" stop-color="#f9edab"/><stop offset="0.74" stop-color="#f8e697"/><stop offset="0.8" stop-color="#f6d977"/><stop offset="0.87" stop-color="#f4c84b"/><stop offset="0.94" stop-color="#f1b61c"/><stop offset="1" stop-color="#c58c2b"/></linearGradient><linearGradient id="linear-gradient-3" x1="-347.26" y1="605.58" x2="720.48" y2="757.62" gradientUnits="userSpaceOnUse"><stop offset="0" stop-color="#a06d29"/><stop offset="0.38" stop-color="#a06d29"/><stop offset="0.55" stop-color="#fac64c"/><stop offset="0.65" stop-color="#f6b11a"/><stop offset="0.65" stop-color="#f6b525"/><stop offset="0.66" stop-color="#f8bf42"/><stop offset="0.67" stop-color="#f9d070"/><stop offset="0.67" stop-color="#fce7b1"/><stop offset="0.68" stop-color="#fefbea"/><stop offset="0.78" stop-color="#feea98"/><stop offset="0.89" stop-color="#f6b11a"/><stop offset="0.95" stop-color="#a06d29"/><stop offset="1" stop-color="#b58d49"/></linearGradient><linearGradient id="linear-gradient-4" x1="-594.95" y1="386.28" x2="923.87" y2="609.83" gradientUnits="userSpaceOnUse"><stop offset="0" stop-color="#a06d29"/><stop offset="0.38" stop-color="#a06d29"/><stop offset="0.55" stop-color="#fac64c"/><stop offset="0.65" stop-color="#f6b11a"/><stop offset="0.65" stop-color="#f6b525"/><stop offset="0.66" stop-color="#f8bf42"/><stop offset="0.67" stop-color="#f9d070"/><stop offset="0.67" stop-color="#fce7b1"/><stop offset="0.68" stop-color="#fefbea"/><stop offset="0.79" stop-color="#feea98"/><stop offset="0.83" stop-color="#f6b11a"/><stop offset="0.95" stop-color="#a06d29"/><stop offset="1" stop-color="#b58d49"/></linearGradient></defs><g id="Layer_2" data-name="Layer 2"><g id="annotation"><path fill="#fff" d="M877,1106.8H827.29V1197H877v-13h-36v-28.39H876v-13H841.07v-22.85h36Zm-69.47,13.51a30.71,30.71,0,0,0-6.89-9c-2.84-2.43-8.38-6.08-18.12-6.08-16.89,0-26.35,11.62-26.35,23.79,0,13.51,10.94,19.73,18.38,22.84l8.65,3.65c5.95,2.43,13,6.21,13,15.41S789.72,1186,781.34,1186a14.23,14.23,0,0,1-11.76-5.4,19.5,19.5,0,0,1-3.79-11.49l-13.65,3a29.13,29.13,0,0,0,7.57,17.57c4.6,5.14,10.81,9.06,21.22,9.06,16.9,0,29.06-11.76,29.06-28.93,0-10.27-4.59-19.73-21.22-26.49l-9.06-3.65c-8.78-3.51-9.73-8.24-9.73-11,0-5.81,4.33-10.81,12.71-10.81a14.37,14.37,0,0,1,9.73,3.25,14.19,14.19,0,0,1,4.05,5.67Zm-138.4-13.51v58c0,7.17,1.48,15.82,8.38,23.39,4.73,5.13,12.7,10.54,25,10.54s20.28-5.41,25-10.54c6.89-7.57,8.38-16.22,8.38-23.39v-58H722.14v54.33c0,4.87-.14,10.82-2.84,15.55a19.73,19.73,0,0,1-33.52,0c-2.7-4.73-2.84-10.68-2.84-15.55V1106.8ZM605,1186c-19.33,0-33.12-14-33.12-34.06s13.79-34.06,33.12-34.06,33.11,14.06,33.11,34.06S624.29,1186,605,1186Zm0-80.82c-27,0-46.9,20.27-46.9,46.76s19.87,46.77,46.9,46.77,46.9-20.28,46.9-46.77S632,1105.18,605,1105.18Zm-116.64,1.62H474.53V1197h13.79v-41.49H527V1197h13.79V1106.8H527v35.68H488.32Zm-98.53,0V1197h40.28v-13H403.58V1106.8Zm-68.52,55.42,13.92-30.55,13.38,30.55Zm42.3,34.73h14.87l-42.71-95.42L290.85,1197h14.87l9.87-21.76h38.52Zm-97.85-90.15V1197H279.5V1106.8Zm-17,4.86c-7.84-5-15.81-6.48-24.06-6.48-12.43,0-23.25,3-32.57,11.76-7.57,7.16-14.46,18.65-14.46,35.27,0,12.71,3.92,24.2,14.46,34.06a45.16,45.16,0,0,0,31.9,12.44,49.18,49.18,0,0,0,24.73-6.76V1175.6c-5.14,4.86-13.52,10.4-24.33,10.4-19.19,0-33-14.73-33-33.79,0-19.87,13.25-34.33,32.85-34.33,5.13,0,14.46.95,24.46,10Zm-131,74.34c-19.32,0-33.11-14-33.11-34.06s13.79-34.06,33.11-34.06,33.12,14.06,33.12,34.06S137.05,1186,117.72,1186Zm0-80.82c-27,0-46.9,20.27-46.9,46.76s19.87,46.77,46.9,46.77,46.9-20.28,46.9-46.77S144.76,1105.18,117.72,1105.18Zm-62.3,15.13a30.73,30.73,0,0,0-6.9-9c-2.83-2.43-8.38-6.08-18.11-6.08-16.89,0-26.35,11.62-26.35,23.79,0,13.51,10.94,19.73,18.38,22.84l8.65,3.65c5.94,2.43,13,6.21,13,15.41S37.58,1186,29.2,1186a14.22,14.22,0,0,1-11.76-5.4,19.43,19.43,0,0,1-3.79-11.49l-13.65,3a29.13,29.13,0,0,0,7.57,17.57c4.6,5.14,10.81,9.06,21.22,9.06,16.9,0,29.06-11.76,29.06-28.93,0-10.27-4.6-19.73-21.22-26.49l-9.06-3.65c-8.78-3.51-9.73-8.24-9.73-11,0-5.81,4.33-10.81,12.71-10.81a14.37,14.37,0,0,1,9.73,3.25,14.19,14.19,0,0,1,4,5.67Z"/><polygon fill="#020201" points="343.88 559.3 343.88 838.48 452.94 1030.26 458.49 1026.23 458.49 528.07 452.84 524.03 343.88 559.3"/><path fill="#020201" d="M452.84,1020.9c0,1.5-104.89-190.16-106.48-189.4s-2.77-1.13-4.05-2c-10.38-6.87-20.69-13.86-31.1-20.68Q197.52,734.43,83.81,660.07c-7.46-4.88-15-9.72-22.92-14.89-.08,1.4-.15,2.07-.15,2.75,0,37.88,0,75.76-.09,113.64,0,2.94,1.54,4,3.51,5.31"/><path fill="none" d="M288.93,273l-.4-.27-.39.27Z"/><path fill="none" d="M577.8,446.59c2.8,1.83,3.76,3.79,3.73,7.06-.17,14.51,0,29-.12,43.53,0,3.34.37,4.64,3.92,2.5q14.14-8.54,28.56-16.63c2.23-1.26,2.87-2.76,2.91-5.17.48-24.22,1-48.43,1.7-72.64.14-4.2-1.36-6.41-4.77-8.62C564,364.33,514.24,332.16,465,299.26c-8.59-5.73-14.26-6.6-22.77-.16-14,10.65-29.22,19.78-44.28,29.79,1.5,1,2.65,1.88,3.84,2.66Q489.75,389.11,577.8,446.59Z"/><path fill="none" d="M458.32,14a10.85,10.85,0,0,0-2.83-1.37l134.72,87.71Q524.24,57.19,458.32,14Z"/><path fill="none" d="M523.42,476.91q7-4.65,14-9.31l-1-1Z"/><path fill="none" d="M740,333.35q20.32-13.55,40.69-27.05l-34.86,21.34Z"/><path fill="none" d="M543.34,462.17l0,0-2.69,1.79-.59,2,17.79-11.8c2.39-1.59,3.36-2.25,2.89-3.08l-12.29,7.9Z"/><path fill="url(#linear-gradient)" d="M453,519.68c2.36,1.54,3.91,1.4,6,0q32.18-21.39,64.37-42.75l13.08-6.37,1-2.94,2.58-1.71.59,1.92,2.69-1.79,2.63-2.55,3.78-2L562,451c-.33-.58-2.62-1.24-4.32-2.35q-57.78-37.73-115.55-75.45-69.4-45.36-138.76-90.75L288.93,273h-.79l.39-.27-1.85-1.21c8.37-5.53,16.1-10.62,23.82-15.74q70-46.44,140-92.93c2.29-1.53,3.87-1.83,6.47-.13q134.4,88,268.93,175.9c2.23,1.46,3.74,1.58,6.07,0l8-5.31,7.13-4.41,33.56-22.64,59.14-39.23c.76-.51,1.88-.76,1.88-2.18-1.27-.86-2.57-1.78-3.89-2.65Q763.92,213.9,690,165.55l-99.8-65.24L455.49,12.6c-2.1-.61-3.94-.07-6.28,1.49Q396,49.6,342.66,84.82L120.35,232.21,67.44,267.28c.77.67,1.06,1,1.41,1.22"/><path fill="url(#linear-gradient-2)" d="M860.29,268.2a6.57,6.57,0,0,0-3.42-6.28Q742.39,187.21,628,112.35,543.39,57,458.82,1.71c-3.33-2.19-5.64-2.37-9.11,0-18.35,12.47-36.92,24.63-55.41,36.89q-169.76,112.53-339.53,225c-2.57,1.71-3.64,3.48-3.63,6.64q.18,55.74,0,111.47a6.94,6.94,0,0,0,3.56,6.69c29.05,18.86,58,37.88,87,56.81Q238,508.11,334.36,570.9a6.5,6.5,0,0,1,3.42,6.26c-.09,26.56,0,53.12,0,79.68,0,1.37.45,2.85-.47,4.2-1.63,0-2.64-1.19-3.79-1.94q-77-50.28-153.86-100.7c-2.6-1.7-4.41-2-7.22-.13q-58.67,39.08-117.57,77.82c-2.79,1.84-3.73,3.77-3.72,7q.16,62,0,124.1a6.58,6.58,0,0,0,3.39,6.29Q83.39,792.16,112.12,811,215.31,878.42,318.46,945.9q67.14,43.92,134.2,87.95c3.36,2.21,5.68,2.16,9.11-.13Q519,995.4,576.59,957.55c3.78-2.48,5-5.07,4.95-9.42-.14-54.87,0-109.74-.16-164.6,0-3.7.85-6,4.18-8.08C594.44,770,603,764,611.74,758.25c1.65-1.08,3.1-2.59,5.66-2.84.2,8.63-.09,16.9.76,25.16a8.28,8.28,0,0,0,4.17,6.9q51.54,33.6,102.94,67.41c2.24,1.47,3.75,1.59,6.13,0q60.9-40.59,125.36-83.13c2.69-1.78,3.52-3.65,3.52-6.71M72.94,636.2q49.77-32.75,99.32-65.83c2.58-1.72,4.31-1.74,6.88,0q77.79,51,155.69,101.91c2,1.31,3.49,2.46,3.48,5.35q-.17,66.81-.09,133.62c0,.69-.08,1.39-.19,3L302.2,790.77Q187.58,715.82,73,640.92C69.89,638.92,69.82,638.26,72.94,636.2Zm379.9,384.7-99.06-64.74Q209,861.53,64.16,766.88c-2-1.29-3.52-2.37-3.51-5.31.13-37.88.09-75.76.09-113.64,0-.68.07-1.35.15-2.75,8,5.17,15.46,10,22.92,14.89q113.7,74.37,227.4,148.77c10.41,6.82,20.72,13.81,31.1,20.68,1.28.85,2.6,2.67,4.05,2s.71-2.9.71-4.4q.06-113.21,0-226.42c0-9.29-.17-18.58.08-27.86.1-3.48-1.07-5.48-3.95-7.35q-67.59-44-135-88.14-71.5-46.74-143-93.42c-3.28-2.13-4.55-4.39-4.53-8.37.17-33.23.1-66.47.1-99.71v-3.22c7.13,4.58,13.8,8.81,20.41,13.13q132.09,86.39,264.16,172.8,51.85,33.91,103.8,67.68c2.75,1.78,3.85,3.57,3.84,6.92M68.85,268.5c-.35-.23-.64-.55-1.41-1.22l52.91-35.07L342.66,84.82Q396,49.5,449.21,14.09c2.34-1.56,4.18-2.1,6.28-1.49A10.85,10.85,0,0,1,458.32,14q65.91,43.23,131.89,86.34L690,165.55q73.92,48.33,147.81,96.69c1.32.87,2.62,1.79,3.89,2.65,0,1.42-1.12,1.67-1.88,2.18L780.69,306.3Q760.34,319.8,740,333.35l-8,5.31c-2.33,1.55-3.84,1.43-6.07,0q-134.46-88-268.93-175.9c-2.6-1.7-4.18-1.4-6.47.13q-70,46.51-140,92.93c-7.72,5.12-15.45,10.21-23.82,15.74l1.85,1.21.4.27,14.45,9.45q69.38,45.38,138.76,90.75Q499.89,411,557.69,448.66c1.7,1.11,2.7,1.77,3,2.35.47.83-.5,1.49-2.89,3.08L540,465.89l-2.58,1.71q-7,4.66-14,9.31-32.19,21.36-64.37,42.75c-2.13,1.42-3.68,1.56-6,0M724.9,535.13v6.79c-5.64-3.6-10.85-6.87-16-10.24-26.81-17.51-50.58-35.09-77.44-52.53-3-1.94-4.14-4-4-7.67.71-22,1.16-44.09,1.56-66.14.23-12.71-2.84-12.79-13.34-19.67q-79.47-52-158.94-104c-2.91-1.91-4.91-1.79-7.73.11-19.25,13-38.65,25.71-57.91,38.66-2.42,1.62-4,1.55-6.43-.05Q346.91,295.53,309,270.92c-.59-.39-1.15-.82-2.08-1.49C318.11,262,329,254.62,340,247.35Q394.92,211,449.81,174.54c2.88-1.93,4.72-1.83,7.56,0Q578.5,253.88,699.76,333c7,4.59,14,9.32,21.12,13.76,2.42,1.5,3.2,3.19,3.17,6M442.18,299.1c8.51-6.44,14.18-5.57,22.77.16,49.29,32.9,98.07,65.07,147.78,97.36,3.41,2.21,4.91,4.42,4.77,8.62-.75,24.21-.22,48.42-.7,72.64,0,2.41-.68,3.91-2.91,5.17q-14.4,8.11-28.56,16.63c-3.55,2.14-4,.84-3.92-2.5.1-14.51,0-29,.12-43.53,0-3.27-.93-5.23-3.73-7.06q-88.09-57.42-176.06-115c-1.19-.78-2.34-1.62-3.84-2.66C413,318.88,428.14,309.75,442.18,299.1ZM580.53,516.5c0-2.44.64-3.92,2.83-5.18,12.33-7,25.6-16.17,37.82-23.41,2.38-1.42,4.06-1.53,6.55.1,31.87,21,58.85,39.82,90.79,60.7.83.54-1.24-1,0,0C670.22,580,629,607.19,581.15,638.16M724.9,841.51c-9.11-5.91-14.82-9.53-23.49-15.2-23.76-15.54-47.48-31.16-71.31-46.6-2.77-1.8-3.94-3.65-3.81-7,.28-7,.15-13.93.05-20.9a5.16,5.16,0,0,1,2.59-5c32.53-21.49,62-41.09,94.47-62.65a7.55,7.55,0,0,1,1.5-.5ZM846.06,766q-52.17,34.32-104.19,68.85c-1.16.77-2.15,2-3.83,2-.93-1.63-.46-3.39-.46-5.05q0-82.5-.06-165c0-1.38.77-3.29-.56-4.06s-2.54.89-3.68,1.65q-80,53-160,105.94a7.63,7.63,0,0,0-3.92,7.32c.11,55.88.06,111.76.13,167.64,0,2.71-.62,4.45-3,6q-49.23,32.46-98.32,65.12c-.95.62-2,1.15-3.75,2.19v-5.53q0-240.57-.09-481.13c0-3.79,1.1-6,4.29-8.05q48.72-32,97.24-64.29c1-.63,2-1.17,3.44-2.07V657.86c1.92.5,2.83-.58,3.87-1.27q80.67-53.46,161.39-106.86c2.62-1.73,3.08-3.68,3.08-6.47q-.08-96.22-.12-192.45c0-3.57.91-5.74,4-7.77q52.14-34.29,104.11-68.86c1.27-.84,2.38-2.13,4.55-2.1v4.25q0,241,.09,482C850.22,762,849.05,764,846.06,766Z"/><path fill="#020201" d="M850.13,272.08c-2.17,0-3.28,1.26-4.55,2.1Q793.53,308.62,741.47,343c-3.09,2-4,4.2-4,7.77q.16,96.22.12,192.45c0,2.79-.46,4.74-3.08,6.47q-80.76,53.34-161.39,106.86c-1,.69-2,1.77-3.87,1.27V457.53c-1.49.9-2.49,1.44-3.44,2.07q-48.6,32.17-97.24,64.29c-3.19,2.09-4.29,4.26-4.29,8.05q.15,240.57.09,481.13v5.53c1.78-1,2.8-1.57,3.75-2.19q49.14-32.58,98.32-65.12c2.42-1.59,3-3.33,3-6-.07-55.88,0-111.76-.13-167.64a7.63,7.63,0,0,1,3.92-7.32q80.07-52.87,160-105.94c1.14-.76,2.31-2.44,3.68-1.65s.56,2.68.56,4.06q.06,82.51.06,165c0,1.66-.47,3.42.46,5.05,1.68,0,2.67-1.2,3.83-2Q794,800.44,846.06,766c3-2,4.16-4,4.16-7.68q-.15-241-.09-482Z"/><path fill="#020201" d="M453,533.14c0-3.35-1.09-5.14-3.84-6.92q-52-33.72-103.8-67.68Q213.22,372.16,81.15,285.74c-6.61-4.32-13.28-8.55-20.41-13.13v3.22c0,33.24.07,66.48-.1,99.71,0,4,1.25,6.24,4.53,8.37q71.58,46.6,143,93.42,67.49,44.1,135,88.14c2.88,1.87,4.05,3.87,3.95,7.35"/><path fill="#020201" d="M724.05,352.72c0-2.78-.75-4.47-3.17-6-7.13-4.44-14.09-9.17-21.12-13.76Q578.55,253.8,457.37,174.57c-2.84-1.86-4.68-2-7.56,0Q395,211.08,340,247.35c-11,7.27-21.89,14.61-33.08,22.08.93.67,1.49,1.1,2.08,1.49q37.85,24.7,75.65,49.47c2.43,1.6,4,1.67,6.43.05,19.26-12.95,38.66-25.7,57.91-38.66,2.82-1.9,4.82-2,7.73-.11q79.41,52.09,158.94,104c10.5,6.88,13.57,7,13.34,19.67-.4,22.05-.85,44.1-1.56,66.14-.13,3.71,1,5.73,4,7.67,26.86,17.44,50.63,35,77.44,52.53,5.16,3.37,10.37,6.64,16,10.24v-6.79c-.13-36.71-.37-73.54-.48-110.15C724.34,400.89,724.05,376.87,724.05,352.72Z"/><path fill="url(#linear-gradient-3)" d="M73,640.92Q187.63,715.75,302.2,790.77L338,814.19c.11-1.6.19-2.3.19-3q0-66.81.09-133.62c0-2.89-1.47-4-3.48-5.35Q257,621.33,179.14,570.32c-2.57-1.69-4.3-1.67-6.88,0Q122.7,603.43,72.94,636.2C69.82,638.26,69.89,638.92,73,640.92Z"/><path fill="url(#linear-gradient-4)" d="M718.52,548.71C686.58,527.83,659.6,509,627.73,488c-2.49-1.63-4.17-1.52-6.55-.1-12.22,7.24-25.92,16.42-38.25,23.46-2.19,1.25-2.84,2.74-2.83,5.18.07,42.79.85,79,.89,121.8"/><path fill="#020201" d="M628.93,746.84a5.16,5.16,0,0,0-2.59,5c.1,7,.23,13.94-.05,20.9-.13,3.34,1,5.19,3.81,7,23.83,15.44,47.55,31.06,71.31,46.6,8.67,5.67,14.38,9.29,23.49,15.2V683.69a7.55,7.55,0,0,0-1.5.5C690.92,705.75,661.46,725.35,628.93,746.84Z"/></g></g></svg>