<svg xmlns="http://www.w3.org/2000/svg" viewBox="0 0 809.15 1035.48"><defs><linearGradient id="linear-gradient" x1="-381.38" y1="127.73" x2="810.75" y2="338.51" gradientUnits="userSpaceOnUse"><stop offset="0" stop-color="#a06d29"/><stop offset="0.34" stop-color="#a06d29"/><stop offset="0.55" stop-color="#f9c025"/><stop offset="0.65" stop-color="#f6b11a"/><stop offset="0.66" stop-color="#f6b525"/><stop offset="0.66" stop-color="#f8bf42"/><stop offset="0.67" stop-color="#f9d070"/><stop offset="0.68" stop-color="#fce7b1"/><stop offset="0.68" stop-color="#fefbea"/><stop offset="0.83" stop-color="#feea98"/><stop offset="0.94" stop-color="#f6b11a"/></linearGradient><linearGradient id="linear-gradient-2" x1="900.99" y1="375.54" x2="-15.86" y2="638.15" gradientUnits="userSpaceOnUse"><stop offset="0" stop-color="#a06d29"/><stop offset="0.11" stop-color="#a9732d"/><stop offset="0.13" stop-color="#b57d2a"/><stop offset="0.19" stop-color="#d99921"/><stop offset="0.25" stop-color="#efab1c"/><stop offset="0.28" stop-color="#f7b11a"/><stop offset="0.39" stop-color="#f7b11a"/><stop offset="0.42" stop-color="#f7b525"/><stop offset="0.48" stop-color="#f8c141"/><stop offset="0.56" stop-color="#f8d570"/><stop offset="0.64" stop-color="#f9efb0"/><stop offset="0.65" stop-color="#f9f0b2"/><stop offset="0.68" stop-color="#f9edab"/><stop offset="0.74" stop-color="#f8e697"/><stop offset="0.8" stop-color="#f6d977"/><stop offset="0.87" stop-color="#f4c84b"/><stop offset="0.94" stop-color="#f1b61c"/><stop offset="1" stop-color="#c58c2b"/></linearGradient><linearGradient id="linear-gradient-3" x1="-398.4" y1="605.58" x2="669.34" y2="757.62" gradientUnits="userSpaceOnUse"><stop offset="0" stop-color="#a06d29"/><stop offset="0.38" stop-color="#a06d29"/><stop offset="0.55" stop-color="#fac64c"/><stop offset="0.65" stop-color="#f6b11a"/><stop offset="0.65" stop-color="#f6b525"/><stop offset="0.66" stop-color="#f8bf42"/><stop offset="0.67" stop-color="#f9d070"/><stop offset="0.67" stop-color="#fce7b1"/><stop offset="0.68" stop-color="#fefbea"/><stop offset="0.78" stop-color="#feea98"/><stop offset="0.89" stop-color="#f6b11a"/><stop offset="0.95" stop-color="#a06d29"/><stop offset="1" stop-color="#b58d49"/></linearGradient><linearGradient id="linear-gradient-4" x1="-646.1" y1="386.28" x2="872.73" y2="609.83" gradientUnits="userSpaceOnUse"><stop offset="0" stop-color="#a06d29"/><stop offset="0.38" stop-color="#a06d29"/><stop offset="0.55" stop-color="#fac64c"/><stop offset="0.65" stop-color="#f6b11a"/><stop offset="0.65" stop-color="#f6b525"/><stop offset="0.66" stop-color="#f8bf42"/><stop offset="0.67" stop-color="#f9d070"/><stop offset="0.67" stop-color="#fce7b1"/><stop offset="0.68" stop-color="#fefbea"/><stop offset="0.79" stop-color="#feea98"/><stop offset="0.83" stop-color="#f6b11a"/><stop offset="0.95" stop-color="#a06d29"/><stop offset="1" stop-color="#b58d49"/></linearGradient></defs><g id="Layer_2" data-name="Layer 2"><g id="annotation"><polygon fill="#020201" points="292.74 559.3 292.74 838.48 401.8 1030.26 407.35 1026.23 407.35 528.07 401.7 524.03 292.74 559.3"/><path fill="#020201" d="M401.7,1020.9c0,1.5-104.89-190.16-106.48-189.4s-2.77-1.13-4.05-2c-10.38-6.87-20.69-13.86-31.11-20.68Q146.39,734.43,32.66,660.07c-7.46-4.88-14.95-9.72-22.91-14.89-.08,1.4-.15,2.07-.15,2.75,0,37.88,0,75.76-.09,113.64,0,2.94,1.53,4,3.51,5.31"/><path fill="none" d="M237.79,273l-.4-.27-.4.27Z"/><path fill="none" d="M526.66,446.59c2.8,1.83,3.76,3.79,3.72,7.06-.17,14.51,0,29-.11,43.53,0,3.34.37,4.64,3.91,2.5q14.16-8.54,28.57-16.63c2.23-1.26,2.86-2.76,2.91-5.17.48-24.22,1-48.43,1.7-72.64.13-4.2-1.36-6.41-4.78-8.62-49.7-32.29-99.48-64.46-148.78-97.36-8.58-5.73-14.25-6.6-22.76-.16-14,10.65-29.22,19.78-44.28,29.79,1.5,1,2.65,1.88,3.84,2.66Q438.6,389.11,526.66,446.59Z"/><path fill="none" d="M407.18,14a11,11,0,0,0-2.83-1.37l134.72,87.71Q473.1,57.19,407.18,14Z"/><path fill="none" d="M472.28,476.91l14-9.31-.95-1Z"/><path fill="none" d="M688.86,333.35q20.32-13.55,40.69-27.05l-34.86,21.34Z"/><path fill="none" d="M492.2,462.17l0,0-2.69,1.79-.59,2,17.79-11.8c2.39-1.59,3.36-2.25,2.89-3.08l-12.29,7.9Z"/><path fill="url(#linear-gradient)" d="M401.87,519.68c2.36,1.54,3.91,1.4,6,0q32.18-21.39,64.37-42.75l13.08-6.37.95-2.94,2.58-1.71.59,1.92,2.69-1.79,2.62-2.55,3.78-2L510.86,451c-.32-.58-2.61-1.24-4.32-2.35Q448.78,410.93,391,373.21q-69.39-45.36-138.75-90.75L237.79,273H237l.4-.27-1.86-1.21c8.37-5.53,16.11-10.62,23.83-15.74q70-46.44,140-92.93c2.29-1.53,3.87-1.83,6.46-.13q134.42,88,268.93,175.9c2.24,1.46,3.75,1.58,6.08,0l8-5.31,7.13-4.41,33.56-22.64,59.14-39.23c.76-.51,1.88-.76,1.88-2.18-1.28-.86-2.57-1.78-3.9-2.65q-73.89-48.35-147.81-96.69l-99.79-65.24L404.35,12.6c-2.1-.61-3.94-.07-6.28,1.49Q344.88,49.6,291.52,84.82L69.21,232.21,16.3,267.28c.77.67,1.06,1,1.4,1.22"/><path fill="url(#linear-gradient-2)" d="M809.15,268.2a6.57,6.57,0,0,0-3.42-6.28q-114.5-74.71-228.88-149.57Q492.25,57,407.68,1.71c-3.33-2.19-5.65-2.37-9.11,0-18.35,12.47-36.92,24.63-55.42,36.89Q173.41,151.12,3.63,263.61C1.05,265.32,0,267.09,0,270.25Q.18,326,0,381.72a6.94,6.94,0,0,0,3.56,6.69c29.05,18.86,58,37.88,87,56.81q96.3,62.89,192.65,125.68a6.5,6.5,0,0,1,3.42,6.26c-.09,26.56,0,53.12,0,79.68,0,1.37.45,2.85-.46,4.2-1.63,0-2.65-1.19-3.79-1.94q-77-50.28-153.86-100.7c-2.6-1.7-4.41-2-7.22-.13Q62.61,597.35,3.72,636.09c-2.79,1.84-3.73,3.77-3.72,7q.17,62,0,124.1a6.54,6.54,0,0,0,3.39,6.29Q32.25,792.16,61,811,164.17,878.42,267.32,945.9q67.13,43.92,134.2,87.95c3.36,2.21,5.68,2.16,9.11-.13q57.26-38.33,114.82-76.17c3.77-2.48,5-5.07,4.95-9.42-.14-54.87-.06-109.74-.17-164.6,0-3.7.86-6,4.19-8.08,8.88-5.48,17.46-11.45,26.18-17.2,1.65-1.08,3.1-2.59,5.66-2.84.2,8.63-.09,16.9.75,25.16a8.31,8.31,0,0,0,4.18,6.9q51.54,33.6,102.94,67.41c2.24,1.47,3.75,1.59,6.13,0q60.9-40.59,125.36-83.13c2.69-1.78,3.52-3.65,3.52-6.71M21.8,636.2q49.77-32.75,99.32-65.83c2.58-1.72,4.31-1.74,6.88,0q77.79,51,155.69,101.91c2,1.31,3.48,2.46,3.48,5.35q-.18,66.81-.09,133.62c0,.69-.09,1.39-.19,3l-35.84-23.42q-114.6-75-229.24-149.85C18.75,638.92,18.68,638.26,21.8,636.2Zm379.9,384.7-99.06-64.74Q157.83,861.53,13,766.88c-2-1.29-3.52-2.37-3.51-5.31.13-37.88.09-75.76.09-113.64,0-.68.07-1.35.15-2.75,8,5.17,15.45,10,22.91,14.89q113.72,74.37,227.4,148.77c10.42,6.82,20.73,13.81,31.11,20.68,1.28.85,2.59,2.67,4.05,2s.71-2.9.71-4.4q.06-113.21,0-226.42c0-9.29-.16-18.58.09-27.86.1-3.48-1.07-5.48-3.95-7.35q-67.59-44-135-88.14-71.5-46.74-143-93.42c-3.27-2.13-4.54-4.39-4.52-8.37.17-33.23.1-66.47.1-99.71v-3.22c7.13,4.58,13.8,8.81,20.41,13.13q132.09,86.39,264.16,172.8Q346,492.45,398,526.22c2.75,1.78,3.85,3.57,3.83,6.92M17.7,268.5c-.34-.23-.63-.55-1.4-1.22l52.91-35.07L291.52,84.82q53.3-35.32,106.55-70.73c2.34-1.56,4.18-2.1,6.28-1.49A11,11,0,0,1,407.18,14q65.91,43.23,131.89,86.34l99.79,65.24q73.92,48.33,147.81,96.69c1.33.87,2.62,1.79,3.9,2.65,0,1.42-1.12,1.67-1.88,2.18L729.55,306.3q-20.35,13.5-40.69,27.05l-8,5.31c-2.33,1.55-3.84,1.43-6.08,0q-134.44-88-268.93-175.9c-2.59-1.7-4.17-1.4-6.46.13q-70,46.51-140,92.93c-7.72,5.12-15.46,10.21-23.83,15.74l1.86,1.21.4.27,14.45,9.45Q321.62,327.84,391,373.21,448.76,411,506.54,448.66c1.71,1.11,2.71,1.77,3,2.35.47.83-.5,1.49-2.89,3.08l-17.79,11.8-2.58,1.71-14,9.31q-32.19,21.36-64.37,42.75c-2.13,1.42-3.68,1.56-6,0m271.89,15.45v6.79c-5.64-3.6-10.86-6.87-16-10.24-26.81-17.51-50.58-35.09-77.44-52.53-3-1.94-4.14-4-4-7.67.72-22,1.16-44.09,1.56-66.14.23-12.71-2.83-12.79-13.33-19.67q-79.47-52-158.95-104c-2.9-1.91-4.9-1.79-7.72.11-19.25,13-38.66,25.71-57.92,38.66-2.42,1.62-4,1.55-6.42-.05q-37.74-24.86-75.65-49.47c-.59-.39-1.15-.82-2.08-1.49,11.19-7.47,22.11-14.81,33.08-22.08q54.92-36.39,109.8-72.81c2.89-1.93,4.72-1.83,7.57,0Q527.36,253.88,648.61,333c7,4.59,14,9.32,21.13,13.76,2.42,1.5,3.19,3.19,3.17,6M391,299.1c8.51-6.44,14.18-5.57,22.76.16,49.3,32.9,98.08,65.07,147.78,97.36,3.42,2.21,4.91,4.42,4.78,8.62-.75,24.21-.22,48.42-.7,72.64,0,2.41-.68,3.91-2.91,5.17q-14.4,8.11-28.57,16.63c-3.54,2.14-3.94.84-3.91-2.5.1-14.51-.06-29,.11-43.53,0-3.27-.92-5.23-3.72-7.06q-88.09-57.42-176.06-115c-1.19-.78-2.34-1.62-3.84-2.66C361.82,318.88,377,309.75,391,299.1ZM529.39,516.5c0-2.44.63-3.92,2.83-5.18,12.33-7,25.6-16.17,37.81-23.41,2.39-1.42,4.07-1.53,6.55.1,31.88,21,58.85,39.82,90.8,60.7.83.54-1.24-1,0,0C619.08,580,577.81,607.19,530,638.16M673.76,841.51c-9.11-5.91-14.82-9.53-23.49-15.2-23.77-15.54-47.49-31.16-71.32-46.6-2.76-1.8-3.93-3.65-3.8-7,.28-7,.14-13.93.05-20.9a5.14,5.14,0,0,1,2.59-5c32.53-21.49,62-41.09,94.47-62.65a7.33,7.33,0,0,1,1.5-.5ZM794.92,766q-52.17,34.32-104.19,68.85c-1.16.77-2.15,2-3.83,2-.94-1.63-.47-3.39-.47-5.05q0-82.5,0-165c0-1.38.76-3.29-.56-4.06s-2.54.89-3.68,1.65q-80,53-160,105.94a7.63,7.63,0,0,0-3.92,7.32c.11,55.88.06,111.76.13,167.64,0,2.71-.62,4.45-3,6q-49.23,32.46-98.33,65.12c-1,.62-2,1.15-3.74,2.19v-5.53q0-240.57-.09-481.13c0-3.79,1.1-6,4.29-8.05q48.72-32,97.24-64.29c.94-.63,1.94-1.17,3.44-2.07V657.86c1.92.5,2.83-.58,3.87-1.27q80.67-53.46,161.38-106.86c2.62-1.73,3.09-3.68,3.09-6.47q-.08-96.22-.12-192.45c0-3.57.91-5.74,4-7.77q52.14-34.29,104.11-68.86c1.27-.84,2.38-2.13,4.55-2.1v4.25q0,241,.09,482C799.08,762,797.91,764,794.92,766Z"/><path fill="#020201" d="M799,272.08c-2.17,0-3.28,1.26-4.55,2.1Q742.39,308.62,690.33,343c-3.09,2-4,4.2-4,7.77q.17,96.22.12,192.45c0,2.79-.47,4.74-3.09,6.47Q602.6,603.07,522,656.59c-1,.69-2,1.77-3.87,1.27V457.53c-1.5.9-2.5,1.44-3.44,2.07q-48.6,32.17-97.24,64.29c-3.19,2.09-4.29,4.26-4.29,8.05q.15,240.57.09,481.13v5.53c1.78-1,2.79-1.57,3.74-2.19q49.15-32.58,98.33-65.12c2.42-1.59,3-3.33,3-6-.07-55.88,0-111.76-.13-167.64a7.63,7.63,0,0,1,3.92-7.32q80.07-52.87,160-105.94c1.14-.76,2.31-2.44,3.68-1.65s.56,2.68.56,4.06q0,82.51,0,165c0,1.66-.47,3.42.47,5.05,1.68,0,2.67-1.2,3.83-2q52.1-34.43,104.19-68.85c3-2,4.16-4,4.16-7.68q-.17-241-.09-482Z"/><path fill="#020201" d="M401.8,533.14c0-3.35-1.08-5.14-3.83-6.92q-52-33.72-103.8-67.68Q162.08,372.16,30,285.74c-6.61-4.32-13.28-8.55-20.41-13.13v3.22c0,33.24.07,66.48-.1,99.71,0,4,1.25,6.24,4.52,8.37q71.6,46.6,143,93.42,67.49,44.1,135,88.14c2.88,1.87,4,3.87,3.95,7.35"/><path fill="#020201" d="M672.91,352.72c0-2.78-.75-4.47-3.17-6-7.14-4.44-14.09-9.17-21.13-13.76Q527.4,253.8,406.23,174.57c-2.85-1.86-4.68-2-7.57,0q-54.81,36.54-109.8,72.81c-11,7.27-21.89,14.61-33.08,22.08.93.67,1.49,1.1,2.08,1.49q37.84,24.7,75.65,49.47c2.43,1.6,4,1.67,6.42.05,19.26-12.95,38.67-25.7,57.92-38.66,2.82-1.9,4.82-2,7.72-.11q79.41,52.09,159,104c10.5,6.88,13.56,7,13.33,19.67-.4,22.05-.84,44.1-1.56,66.14-.12,3.71,1,5.73,4,7.67,26.86,17.44,50.63,35,77.44,52.53,5.15,3.37,10.37,6.64,16,10.24v-6.79c-.13-36.71-.37-73.54-.48-110.15C673.2,400.89,672.91,376.87,672.91,352.72Z"/><path fill="url(#linear-gradient-3)" d="M21.81,640.92q114.68,74.83,229.24,149.85l35.84,23.42c.1-1.6.19-2.3.19-3q0-66.81.09-133.62c0-2.89-1.47-4-3.48-5.35Q205.81,621.33,128,570.32c-2.57-1.69-4.3-1.67-6.88,0Q71.56,603.43,21.8,636.2C18.68,638.26,18.75,638.92,21.81,640.92Z"/><path fill="url(#linear-gradient-4)" d="M667.38,548.71c-32-20.88-58.92-39.71-90.8-60.7-2.48-1.63-4.16-1.52-6.55-.1-12.21,7.24-25.91,16.42-38.24,23.46-2.2,1.25-2.84,2.74-2.83,5.18.07,42.79.85,79,.89,121.8"/><path fill="#020201" d="M577.79,746.84a5.14,5.14,0,0,0-2.59,5c.09,7,.23,13.94-.05,20.9-.13,3.34,1,5.19,3.8,7,23.83,15.44,47.55,31.06,71.32,46.6,8.67,5.67,14.38,9.29,23.49,15.2V683.69a7.33,7.33,0,0,0-1.5.5C639.78,705.75,610.32,725.35,577.79,746.84Z"/></g></g></svg>