<?xml version="1.0" standalone="no"?>
<!DOCTYPE svg PUBLIC "-//W3C//DTD SVG 20010904//EN"
 "http://www.w3.org/TR/2001/REC-SVG-20010904/DTD/svg10.dtd">
<svg version="1.0" xmlns="http://www.w3.org/2000/svg"
 width="1037.000000pt" height="1037.000000pt" viewBox="0 0 1037.000000 1037.000000"
 preserveAspectRatio="xMidYMid meet">
<metadata>
Created by potrace 1.14, written by Peter Selinger 2001-2017
</metadata>
<g transform="translate(0.000000,1037.000000) scale(0.100000,-0.100000)"
fill="#000000" stroke="none">
<path d="M5151 10362 c-8 -2 -282 -182 -610 -400 -1005 -666 -1543 -1023
-1601 -1061 -30 -19 -56 -39 -58 -43 -2 -5 -8 -8 -12 -8 -11 0 -224 -142 -228
-152 -2 -5 -7 -8 -12 -8 -4 0 -117 -73 -251 -161 -134 -89 -466 -309 -736
-488 -289 -191 -496 -334 -500 -346 -10 -29 -11 -1166 -1 -1187 5 -10 59 -50
121 -91 61 -40 170 -111 242 -158 71 -46 205 -133 297 -194 92 -60 227 -149
300 -196 271 -177 568 -371 738 -482 229 -150 456 -298 550 -359 41 -26 82
-53 90 -58 8 -6 117 -77 242 -158 125 -82 239 -158 253 -170 l25 -22 0 -428
c0 -236 -2 -431 -5 -434 -3 -3 -92 52 -198 121 -163 108 -433 285 -917 601
-55 36 -165 108 -245 160 -213 140 -246 159 -264 152 -17 -6 -1057 -693 -1078
-711 -7 -6 -14 -11 -17 -11 -10 0 -125 -80 -133 -92 -11 -18 -11 -1299 -1
-1321 5 -10 84 -67 176 -127 92 -60 172 -113 179 -119 7 -6 14 -11 17 -11 3 0
52 -31 108 -68 122 -82 189 -125 203 -132 9 -4 124 -80 458 -302 49 -32 91
-58 93 -58 3 0 10 -5 17 -11 7 -6 64 -44 127 -85 63 -41 169 -110 235 -153 66
-43 201 -132 300 -196 99 -65 230 -150 290 -190 61 -40 171 -112 245 -160 319
-209 403 -263 535 -350 77 -50 205 -135 285 -187 146 -96 354 -232 620 -406
89 -59 154 -95 168 -94 17 1 1067 688 1119 732 7 5 16 10 21 10 5 0 30 19 56
43 l46 43 0 865 c0 845 0 866 20 885 27 27 48 44 54 44 3 0 63 38 133 85 71
47 133 86 138 88 6 1 11 -27 11 -68 3 -130 7 -190 16 -210 10 -22 26 -34 473
-325 171 -112 375 -245 454 -297 80 -52 150 -97 157 -100 7 -2 22 1 34 7 43
23 1256 829 1277 849 l21 20 1 2498 c0 1374 -2 2510 -5 2525 -4 20 -34 45
-142 116 -190 124 -373 243 -532 347 -235 153 -245 159 -248 167 -2 5 -8 8
-13 8 -5 0 -35 17 -67 39 -31 21 -118 78 -192 126 -258 169 -396 259 -483 317
-48 32 -90 58 -93 58 -3 0 -10 5 -17 11 -11 10 -67 46 -347 229 -63 41 -116
78 -118 82 -2 4 -8 8 -12 8 -8 0 -306 192 -498 321 -40 27 -77 49 -81 49 -5 0
-11 3 -13 8 -1 4 -28 23 -58 42 -30 19 -57 37 -60 40 -3 4 -12 10 -20 14 -22
10 -35 19 -265 170 -115 76 -255 168 -310 204 -55 36 -178 117 -273 179 -180
119 -208 133 -231 125z m62 -2961 c15 -6 249 -157 520 -337 635 -421 599 -397
619 -409 101 -59 429 -285 436 -300 9 -20 7 -753 -2 -790 -3 -12 -25 -32 -48
-45 -24 -13 -95 -54 -159 -92 -64 -37 -122 -68 -128 -68 -8 0 -11 71 -11 244
0 134 -3 252 -7 262 -5 13 -258 189 -308 214 -5 3 -77 49 -158 103 -81 53
-150 97 -153 97 -3 0 -14 8 -25 18 -10 11 -32 25 -47 33 -15 8 -29 16 -32 19
-3 3 -57 39 -120 80 -63 41 -198 128 -300 195 -102 67 -230 151 -285 187 -278
181 -395 259 -395 262 0 2 55 39 123 82 67 43 124 81 127 84 3 3 13 10 22 15
26 15 99 66 141 98 80 61 127 73 190 48z"/>
</g>
</svg>
